<?xml version="1.0" encoding="UTF-8" standalone="no"?>
<!DOCTYPE svg PUBLIC "-//W3C//DTD SVG 1.1//EN"
 "http://www.w3.org/Graphics/SVG/1.1/DTD/svg11.dtd">
<!-- Generated by graphviz version 2.30.1 (20130712.1527)
 -->
<!-- Title: GradleSetup Pages: 1 -->
<svg width="1211pt" height="573pt"
 viewBox="0.00 0.00 1211.00 573.00" xmlns="http://www.w3.org/2000/svg" xmlns:xlink="http://www.w3.org/1999/xlink">
<g id="graph0" class="graph" transform="scale(1 1) rotate(0) translate(4 569)">
<title>GradleSetup</title>
<polygon fill="white" stroke="white" points="-4,5 -4,-569 1208,-569 1208,5 -4,5"/>
<text text-anchor="middle" x="87" y="-549.8" font-family="Times,serif" font-size="14.00">Bndtools Gradle Build Setup</text>
<g id="clust1" class="cluster"><title>cluster1</title>
<polygon fill="lightgrey" stroke="black" points="8,-8 8,-534 677,-534 677,-8 8,-8"/>
<text text-anchor="middle" x="68" y="-518.8" font-family="Times,serif" font-size="14.00">Gradle Java Plugin</text>
</g>
<g id="clust2" class="cluster"><title>cluster11</title>
</g>
<g id="clust3" class="cluster"><title>cluster12</title>
</g>
<g id="clust4" class="cluster"><title>cluster13</title>
</g>
<g id="clust5" class="cluster"><title>cluster2</title>
<polygon fill="lightgrey" stroke="black" points="685,-216 685,-451 1195,-451 1195,-216 685,-216"/>
<text text-anchor="middle" x="735.5" y="-435.8" font-family="Times,serif" font-size="14.00">Bndtools Tasks</text>
</g>
<g id="clust6" class="cluster"><title>cluster21</title>
</g>
<g id="clust7" class="cluster"><title>cluster22</title>
</g>
<g id="clust8" class="cluster"><title>cluster23</title>
</g>
<g id="clust9" class="cluster"><title>cluster24</title>
</g>
<!-- compileJava -->
<g id="node1" class="node"><title>compileJava</title>
<polygon fill="lightcyan" stroke="black" points="596.25,-495 511.75,-495 511.75,-459 596.25,-459 596.25,-495"/>
<text text-anchor="middle" x="554" y="-473.3" font-family="Times,serif" font-size="14.00">compileJava</text>
</g>
<!-- classes -->
<g id="node3" class="node"><title>classes</title>
<polygon fill="lightcyan" stroke="black" points="464,-412 410,-412 410,-376 464,-376 464,-412"/>
<text text-anchor="middle" x="437" y="-390.3" font-family="Times,serif" font-size="14.00">classes</text>
</g>
<!-- compileJava&#45;&gt;classes -->
<g id="edge1" class="edge"><title>compileJava&#45;&gt;classes</title>
<path fill="none" stroke="black" d="M529.187,-458.822C511.969,-446.902 488.845,-430.892 470.064,-417.89"/>
<polygon fill="black" stroke="black" points="471.991,-414.968 461.777,-412.153 468.007,-420.723 471.991,-414.968"/>
</g>
<!-- processResources -->
<g id="node2" class="node"><title>processResources</title>
<polygon fill="lightcyan" stroke="black" points="493.25,-495 380.75,-495 380.75,-459 493.25,-459 493.25,-495"/>
<text text-anchor="middle" x="437" y="-473.3" font-family="Times,serif" font-size="14.00">processResources</text>
</g>
<!-- processResources&#45;&gt;classes -->
<g id="edge2" class="edge"><title>processResources&#45;&gt;classes</title>
<path fill="none" stroke="black" d="M437,-458.822C437,-448.19 437,-434.306 437,-422.204"/>
<polygon fill="black" stroke="black" points="440.5,-422.153 437,-412.153 433.5,-422.153 440.5,-422.153"/>
</g>
<!-- javadoc -->
<g id="node13" class="node"><title>javadoc</title>
<polygon fill="lightcyan" stroke="black" points="363.25,-340 304.75,-340 304.75,-304 363.25,-304 363.25,-340"/>
<text text-anchor="middle" x="334" y="-318.3" font-family="Times,serif" font-size="14.00">javadoc</text>
</g>
<!-- classes&#45;&gt;javadoc -->
<g id="edge3" class="edge"><title>classes&#45;&gt;javadoc</title>
<path fill="none" stroke="black" d="M409.897,-375.823C397.082,-367.574 381.636,-357.449 368,-348 367.097,-347.374 366.182,-346.736 365.262,-346.088"/>
<polygon fill="black" stroke="black" points="367.088,-343.092 356.918,-340.121 363.016,-348.785 367.088,-343.092"/>
</g>
<!-- test -->
<g id="node8" class="node"><title>test</title>
<polygon fill="lightcyan" stroke="black" points="286,-196 232,-196 232,-160 286,-160 286,-196"/>
<text text-anchor="middle" x="259" y="-174.3" font-family="Times,serif" font-size="14.00">test</text>
</g>
<!-- classes&#45;&gt;test -->
<g id="edge4" class="edge"><title>classes&#45;&gt;test</title>
<path fill="none" stroke="black" d="M428.169,-375.694C417.55,-355.617 398.568,-321.952 378,-296 350.233,-260.964 312.706,-225.658 287.273,-203.135"/>
<polygon fill="black" stroke="black" points="289.294,-200.252 279.468,-196.289 284.677,-205.514 289.294,-200.252"/>
</g>
<!-- compileTestJava -->
<g id="node5" class="node"><title>compileTestJava</title>
<polygon fill="lightcyan" stroke="black" points="286,-340 178,-340 178,-304 286,-304 286,-340"/>
<text text-anchor="middle" x="232" y="-318.3" font-family="Times,serif" font-size="14.00">compileTestJava</text>
</g>
<!-- classes&#45;&gt;compileTestJava -->
<g id="edge5" class="edge"><title>classes&#45;&gt;compileTestJava</title>
<path fill="none" stroke="black" d="M409.881,-385.665C380.158,-377.402 331.213,-363.138 290,-348 286.501,-346.715 282.907,-345.33 279.308,-343.894"/>
<polygon fill="black" stroke="black" points="280.402,-340.56 269.821,-340.011 277.75,-347.039 280.402,-340.56"/>
</g>
<!-- jar -->
<g id="node4" class="node"><title>jar</title>
<polygon fill="lightcyan" stroke="black" points="515,-340 461,-340 461,-304 515,-304 515,-340"/>
<text text-anchor="middle" x="488" y="-318.3" font-family="Times,serif" font-size="14.00">jar</text>
</g>
<!-- classes&#45;&gt;jar -->
<g id="edge6" class="edge"><title>classes&#45;&gt;jar</title>
<path fill="none" stroke="black" d="M449.607,-375.697C455.597,-367.474 462.876,-357.483 469.479,-348.421"/>
<polygon fill="black" stroke="black" points="472.478,-350.248 475.538,-340.104 466.821,-346.126 472.478,-350.248"/>
</g>
<!-- bundle -->
<g id="node21" class="node"><title>bundle</title>
<polygon fill="cyan" stroke="black" points="1027,-412 973,-412 973,-376 1027,-376 1027,-412"/>
<text text-anchor="middle" x="1000" y="-390.3" font-family="Times,serif" font-size="14.00">bundle</text>
</g>
<!-- classes&#45;&gt;bundle -->
<g id="edge23" class="edge"><title>classes&#45;&gt;bundle</title>
<path fill="none" stroke="blue" d="M464.315,-402.848C510.291,-417.225 606.324,-445.055 690,-455 719.79,-458.541 930.654,-461.228 960,-455 975.903,-451.625 985.915,-436.295 991.946,-421.85"/>
<polygon fill="blue" stroke="blue" points="995.347,-422.741 995.508,-412.148 988.776,-420.329 995.347,-422.741"/>
</g>
<!-- uploadArchives -->
<g id="node10" class="node"><title>uploadArchives</title>
<polygon fill="lightcyan" stroke="black" points="590,-268 488,-268 488,-232 590,-232 590,-268"/>
<text text-anchor="middle" x="539" y="-246.3" font-family="Times,serif" font-size="14.00">uploadArchives</text>
</g>
<!-- jar&#45;&gt;uploadArchives -->
<g id="edge9" class="edge"><title>jar&#45;&gt;uploadArchives</title>
<path fill="none" stroke="black" d="M500.607,-303.697C506.597,-295.474 513.876,-285.483 520.479,-276.421"/>
<polygon fill="black" stroke="black" points="523.478,-278.248 526.538,-268.104 517.821,-274.126 523.478,-278.248"/>
</g>
<!-- assemble -->
<g id="node11" class="node"><title>assemble</title>
<polygon fill="lightcyan" stroke="black" points="469.25,-268 402.75,-268 402.75,-232 469.25,-232 469.25,-268"/>
<text text-anchor="middle" x="436" y="-246.3" font-family="Times,serif" font-size="14.00">assemble</text>
</g>
<!-- jar&#45;&gt;assemble -->
<g id="edge10" class="edge"><title>jar&#45;&gt;assemble</title>
<path fill="none" stroke="black" d="M475.146,-303.697C468.975,-295.389 461.463,-285.277 454.676,-276.141"/>
<polygon fill="black" stroke="black" points="457.479,-274.045 448.706,-268.104 451.86,-278.219 457.479,-274.045"/>
</g>
<!-- testClasses -->
<g id="node7" class="node"><title>testClasses</title>
<polygon fill="lightcyan" stroke="black" points="270,-268 194,-268 194,-232 270,-232 270,-268"/>
<text text-anchor="middle" x="232" y="-246.3" font-family="Times,serif" font-size="14.00">testClasses</text>
</g>
<!-- compileTestJava&#45;&gt;testClasses -->
<g id="edge7" class="edge"><title>compileTestJava&#45;&gt;testClasses</title>
<path fill="none" stroke="black" d="M232,-303.697C232,-295.983 232,-286.712 232,-278.112"/>
<polygon fill="black" stroke="black" points="235.5,-278.104 232,-268.104 228.5,-278.104 235.5,-278.104"/>
</g>
<!-- processTestResources -->
<g id="node6" class="node"><title>processTestResources</title>
<polygon fill="lightcyan" stroke="black" points="160,-340 24,-340 24,-304 160,-304 160,-340"/>
<text text-anchor="middle" x="92" y="-318.3" font-family="Times,serif" font-size="14.00">processTestResources</text>
</g>
<!-- processTestResources&#45;&gt;testClasses -->
<g id="edge8" class="edge"><title>processTestResources&#45;&gt;testClasses</title>
<path fill="none" stroke="black" d="M126.248,-303.876C145.061,-294.469 168.585,-282.708 188.666,-272.667"/>
<polygon fill="black" stroke="black" points="190.241,-275.792 197.62,-268.19 187.111,-269.531 190.241,-275.792"/>
</g>
<!-- testClasses&#45;&gt;test -->
<g id="edge11" class="edge"><title>testClasses&#45;&gt;test</title>
<path fill="none" stroke="black" d="M238.674,-231.697C241.715,-223.813 245.383,-214.304 248.761,-205.546"/>
<polygon fill="black" stroke="black" points="252.069,-206.694 252.403,-196.104 245.538,-204.175 252.069,-206.694"/>
</g>
<!-- check -->
<g id="node9" class="node"><title>check</title>
<polygon fill="lightcyan" stroke="black" points="286,-124 232,-124 232,-88 286,-88 286,-124"/>
<text text-anchor="middle" x="259" y="-102.3" font-family="Times,serif" font-size="14.00">check</text>
</g>
<!-- test&#45;&gt;check -->
<g id="edge13" class="edge"><title>test&#45;&gt;check</title>
<path fill="none" stroke="black" d="M259,-159.697C259,-151.983 259,-142.712 259,-134.112"/>
<polygon fill="black" stroke="black" points="262.5,-134.104 259,-124.104 255.5,-134.104 262.5,-134.104"/>
</g>
<!-- build -->
<g id="node14" class="node"><title>build</title>
<polygon fill="lightcyan" stroke="black" points="342,-52 288,-52 288,-16 342,-16 342,-52"/>
<text text-anchor="middle" x="315" y="-30.3" font-family="Times,serif" font-size="14.00">build</text>
</g>
<!-- check&#45;&gt;build -->
<g id="edge14" class="edge"><title>check&#45;&gt;build</title>
<path fill="none" stroke="black" d="M272.843,-87.6966C279.489,-79.3893 287.578,-69.2771 294.887,-60.1407"/>
<polygon fill="black" stroke="black" points="297.803,-62.0995 301.317,-52.1043 292.336,-57.7266 297.803,-62.0995"/>
</g>
<!-- assemble&#45;&gt;build -->
<g id="edge12" class="edge"><title>assemble&#45;&gt;build</title>
<path fill="none" stroke="black" d="M426.303,-231.849C405.151,-194.44 354.762,-105.322 329.69,-60.9802"/>
<polygon fill="black" stroke="black" points="332.712,-59.2146 324.744,-52.2325 326.619,-62.66 332.712,-59.2146"/>
</g>
<!-- clean -->
<g id="node12" class="node"><title>clean</title>
<polygon fill="lightcyan" stroke="black" points="669,-495 615,-495 615,-459 669,-459 669,-495"/>
<text text-anchor="middle" x="642" y="-473.3" font-family="Times,serif" font-size="14.00">clean</text>
</g>
<!-- cleanBnd -->
<g id="node15" class="node"><title>cleanBnd</title>
<polygon fill="cyan" stroke="black" points="1137,-412 1083,-412 1083,-376 1137,-376 1137,-412"/>
<text text-anchor="middle" x="1110" y="-390.3" font-family="Times,serif" font-size="14.00">clean</text>
</g>
<!-- clean&#45;&gt;cleanBnd -->
<g id="edge20" class="edge"><title>clean&#45;&gt;cleanBnd</title>
<path fill="none" stroke="black" d="M669.144,-475.628C756.693,-474.257 1027.96,-468.619 1063,-451 1076.28,-444.32 1087.25,-432.028 1095.24,-420.659"/>
<polygon fill="black" stroke="black" points="1098.2,-422.533 1100.76,-412.253 1092.35,-418.691 1098.2,-422.533"/>
</g>
<!-- cleanNeeded -->
<g id="node16" class="node"><title>cleanNeeded</title>
<polygon fill="cyan" stroke="black" points="1161,-340 1075,-340 1075,-304 1161,-304 1161,-340"/>
<text text-anchor="middle" x="1118" y="-318.3" font-family="Times,serif" font-size="14.00">cleanNeeded</text>
</g>
<!-- cleanBnd&#45;&gt;cleanNeeded -->
<g id="edge24" class="edge"><title>cleanBnd&#45;&gt;cleanNeeded</title>
<path fill="none" stroke="blue" d="M1111.98,-375.697C1112.86,-367.983 1113.92,-358.712 1114.9,-350.112"/>
<polygon fill="blue" stroke="blue" points="1118.39,-350.437 1116.05,-340.104 1111.43,-349.642 1118.39,-350.437"/>
</g>
<!-- cleanNeeded&#45;&gt;cleanNeeded -->
<g id="edge30" class="edge"><title>cleanNeeded&#45;&gt;cleanNeeded</title>
<path fill="none" stroke="red" stroke-dasharray="5,2" d="M1161.04,-335.262C1171.35,-334.225 1179,-329.805 1179,-322 1179,-317 1175.86,-313.389 1170.89,-311.167"/>
<polygon fill="red" stroke="red" points="1171.58,-307.732 1161.04,-308.738 1169.91,-314.529 1171.58,-307.732"/>
</g>
<!-- release -->
<g id="node17" class="node"><title>release</title>
<polygon fill="cyan" stroke="black" points="795,-340 741,-340 741,-304 795,-304 795,-340"/>
<text text-anchor="middle" x="768" y="-318.3" font-family="Times,serif" font-size="14.00">release</text>
</g>
<!-- releaseNeeded -->
<g id="node18" class="node"><title>releaseNeeded</title>
<polygon fill="cyan" stroke="black" points="796.25,-268 701.75,-268 701.75,-232 796.25,-232 796.25,-268"/>
<text text-anchor="middle" x="749" y="-246.3" font-family="Times,serif" font-size="14.00">releaseNeeded</text>
</g>
<!-- release&#45;&gt;releaseNeeded -->
<g id="edge16" class="edge"><title>release&#45;&gt;releaseNeeded</title>
<path fill="none" stroke="blue" d="M763.303,-303.697C761.187,-295.898 758.638,-286.509 756.282,-277.829"/>
<polygon fill="blue" stroke="blue" points="759.64,-276.838 753.643,-268.104 752.884,-278.672 759.64,-276.838"/>
</g>
<!-- releaseNeeded&#45;&gt;releaseNeeded -->
<g id="edge28" class="edge"><title>releaseNeeded&#45;&gt;releaseNeeded</title>
<path fill="none" stroke="red" stroke-dasharray="5,2" d="M796.326,-263.101C806.571,-261.82 814,-257.453 814,-250 814,-245.225 810.951,-241.717 806.066,-239.476"/>
<polygon fill="red" stroke="red" points="806.889,-236.073 796.326,-236.899 805.098,-242.84 806.889,-236.073"/>
</g>
<!-- export -->
<g id="node19" class="node"><title>export</title>
<polygon fill="cyan" stroke="black" points="930,-340 876,-340 876,-304 930,-304 930,-340"/>
<text text-anchor="middle" x="903" y="-318.3" font-family="Times,serif" font-size="14.00">export</text>
</g>
<!-- exportNeeded -->
<g id="node20" class="node"><title>exportNeeded</title>
<polygon fill="cyan" stroke="black" points="931,-268 839,-268 839,-232 931,-232 931,-268"/>
<text text-anchor="middle" x="885" y="-246.3" font-family="Times,serif" font-size="14.00">exportNeeded</text>
</g>
<!-- export&#45;&gt;exportNeeded -->
<g id="edge18" class="edge"><title>export&#45;&gt;exportNeeded</title>
<path fill="none" stroke="blue" d="M898.551,-303.697C896.545,-295.898 894.131,-286.509 891.899,-277.829"/>
<polygon fill="blue" stroke="blue" points="895.278,-276.918 889.398,-268.104 888.499,-278.661 895.278,-276.918"/>
</g>
<!-- exportNeeded&#45;&gt;exportNeeded -->
<g id="edge29" class="edge"><title>exportNeeded&#45;&gt;exportNeeded</title>
<path fill="none" stroke="red" stroke-dasharray="5,2" d="M931.024,-263.17C941.406,-261.984 949,-257.594 949,-250 949,-245.135 945.884,-241.585 940.914,-239.35"/>
<polygon fill="red" stroke="red" points="941.579,-235.908 931.024,-236.83 939.85,-242.691 941.579,-235.908"/>
</g>
<!-- bundle&#45;&gt;release -->
<g id="edge15" class="edge"><title>bundle&#45;&gt;release</title>
<path fill="none" stroke="blue" d="M972.829,-377.51C971.55,-376.968 970.269,-376.461 969,-376 908.533,-354.055 888.496,-366.871 827,-348 819.688,-345.756 812.049,-342.915 804.784,-339.958"/>
<polygon fill="blue" stroke="blue" points="805.751,-336.567 795.178,-335.901 803.028,-343.016 805.751,-336.567"/>
</g>
<!-- bundle&#45;&gt;export -->
<g id="edge17" class="edge"><title>bundle&#45;&gt;export</title>
<path fill="none" stroke="blue" d="M976.022,-375.697C963.689,-366.796 948.484,-355.823 935.147,-346.199"/>
<polygon fill="blue" stroke="blue" points="936.859,-343.118 926.702,-340.104 932.763,-348.794 936.859,-343.118"/>
</g>
<!-- bundleTest -->
<g id="node22" class="node"><title>bundleTest</title>
<polygon fill="cyan" stroke="black" points="1050.25,-340 973.75,-340 973.75,-304 1050.25,-304 1050.25,-340"/>
<text text-anchor="middle" x="1012" y="-318.3" font-family="Times,serif" font-size="14.00">bundleTest</text>
</g>
<!-- bundle&#45;&gt;bundleTest -->
<g id="edge19" class="edge"><title>bundle&#45;&gt;bundleTest</title>
<path fill="none" stroke="blue" d="M1002.97,-375.697C1004.29,-367.983 1005.88,-358.712 1007.35,-350.112"/>
<polygon fill="blue" stroke="blue" points="1010.83,-350.552 1009.07,-340.104 1003.93,-349.369 1010.83,-350.552"/>
</g>
<!-- bundle&#45;&gt;test -->
<g id="edge22" class="edge"><title>bundle&#45;&gt;test</title>
<path fill="none" stroke="blue" d="M972.88,-377.357C971.587,-376.857 970.29,-376.4 969,-376 849.544,-338.965 796.02,-412.714 689,-348 628.875,-311.643 661.983,-252.591 602,-216 551.456,-185.167 374.414,-179.89 296.399,-179.086"/>
<polygon fill="blue" stroke="blue" points="296.101,-175.583 286.072,-179 296.042,-182.583 296.101,-175.583"/>
</g>
<!-- bundle&#45;&gt;jar -->
<g id="edge25" class="edge"><title>bundle&#45;&gt;jar</title>
<path fill="none" stroke="blue" stroke-dasharray="5,2" d="M972.888,-377.331C971.593,-376.837 970.293,-376.389 969,-376 825.938,-332.919 782.214,-366.848 634,-348 596.689,-343.255 554.357,-335.772 524.918,-330.228"/>
<polygon fill="blue" stroke="blue" points="525.551,-326.786 515.073,-328.356 524.243,-333.662 525.551,-326.786"/>
</g>
<!-- bundle&#45;&gt;bundle -->
<g id="edge26" class="edge"><title>bundle&#45;&gt;bundle</title>
<path fill="none" stroke="red" stroke-dasharray="5,2" d="M1027.24,-407.487C1037.02,-407.777 1045,-403.281 1045,-394 1045,-388.199 1041.88,-384.268 1037.16,-382.206"/>
<polygon fill="red" stroke="red" points="1037.69,-378.745 1027.24,-380.513 1036.51,-385.646 1037.69,-378.745"/>
</g>
<!-- bundle&#45;&gt;compileJava -->
<g id="edge27" class="edge"><title>bundle&#45;&gt;compileJava</title>
<path fill="none" stroke="red" stroke-dasharray="5,2" d="M995.53,-412.217C991.128,-425.342 982.982,-442.553 969,-451 952.752,-460.816 667.594,-456.032 606.565,-458.896"/>
<polygon fill="red" stroke="red" points="606.135,-455.42 596.463,-459.744 606.721,-462.395 606.135,-455.42"/>
</g>
<!-- bundleTest&#45;&gt;check -->
<g id="edge21" class="edge"><title>bundleTest&#45;&gt;check</title>
<path fill="none" stroke="blue" d="M1008.76,-303.667C1003.34,-279.826 990.013,-237.437 961,-216 853.662,-136.691 426.115,-113.576 296.463,-108.324"/>
<polygon fill="blue" stroke="blue" points="296.378,-104.818 286.248,-107.922 296.103,-111.812 296.378,-104.818"/>
</g>
<!-- wrapper -->
<g id="node23" class="node"><title>wrapper</title>
<polygon fill="cyan" stroke="black" points="931.25,-412 870.75,-412 870.75,-376 931.25,-376 931.25,-412"/>
<text text-anchor="middle" x="901" y="-390.3" font-family="Times,serif" font-size="14.00">wrapper</text>
</g>
<!-- bndproperties -->
<g id="node24" class="node"><title>bndproperties</title>
<polygon fill="cyan" stroke="black" points="829.25,-412 738.75,-412 738.75,-376 829.25,-376 829.25,-412"/>
<text text-anchor="middle" x="784" y="-390.3" font-family="Times,serif" font-size="14.00">bndproperties</text>
</g>
</g>
</svg>
